<?xml version="1.0" encoding="UTF-8" standalone="no"?>
<!-- Generator: Adobe Illustrator 15.1.0, SVG Export Plug-In . SVG Version: 6.00 Build 0)  -->

<svg
   xmlns:dc="http://purl.org/dc/elements/1.1/"
   xmlns:cc="http://creativecommons.org/ns#"
   xmlns:rdf="http://www.w3.org/1999/02/22-rdf-syntax-ns#"
   xmlns:svg="http://www.w3.org/2000/svg"
   xmlns="http://www.w3.org/2000/svg"
   xmlns:xlink="http://www.w3.org/1999/xlink"
   xmlns:sodipodi="http://sodipodi.sourceforge.net/DTD/sodipodi-0.dtd"
   xmlns:inkscape="http://www.inkscape.org/namespaces/inkscape"
   version="1.1"
   id="Capa_1"
   x="0px"
   y="0px"
   width="178"
   height="106"
   viewBox="36 15 178 91.999999"
   enable-background="new 36 15 179 46"
   xml:space="preserve"
   sodipodi:docname="holaluz-logo.svg"
   inkscape:version="0.92.4 (unknown)"><metadata
   id="metadata24"><rdf:RDF><cc:Work
       rdf:about=""><dc:format>image/svg+xml</dc:format><dc:type
         rdf:resource="http://purl.org/dc/dcmitype/StillImage" /><dc:title></dc:title></cc:Work></rdf:RDF></metadata><defs
   id="defs22" /><sodipodi:namedview
   pagecolor="#ffffff"
   bordercolor="#666666"
   borderopacity="1"
   objecttolerance="10"
   gridtolerance="10"
   guidetolerance="10"
   inkscape:pageopacity="0"
   inkscape:pageshadow="2"
   inkscape:window-width="1920"
   inkscape:window-height="1029"
   id="namedview20"
   showgrid="false"
   fit-margin-top="30"
   fit-margin-bottom="30"
   inkscape:zoom="2.0558659"
   inkscape:cx="88.818"
   inkscape:cy="57.023623"
   inkscape:window-x="0"
   inkscape:window-y="25"
   inkscape:window-maximized="1"
   inkscape:current-layer="Capa_1"
   fit-margin-left="0"
   fit-margin-right="0" />
<g
   id="g17"
   transform="translate(-0.682,22.476377)">
	<g
   id="g15">
		<defs
   id="defs3">
			<path
   id="SVGID_1_"
   d="m 159.592,48.54 v 1.993 c 0,6.828 3.418,11.65 10.589,11.65 3.621,0 6.501,-1.539 8.177,-3.817 l 0.67,3.146 h 6.904 V 48.54 h -8.043 v 0.853 c 0,3.282 -2.078,5.759 -5.428,5.759 -3.149,0 -4.759,-2.141 -4.759,-5.087 V 48.54 Z m -13.773,12.975 h 8.043 V 48.54 h -8.043 z M 113.155,48.54 v 0.922 c 0,7.433 3.819,12.722 11.192,12.722 3.553,0 6.301,-1.474 7.975,-3.749 l 0.604,3.08 h 6.904 V 48.54 h -8.043 v 0.853 c 0,3.282 -2.078,5.759 -5.429,5.759 -3.351,0 -5.093,-2.409 -5.093,-5.622 V 48.54 Z M 99.947,61.515 h 8.042 V 48.54 H 99.947 Z M 68.127,48.54 v 0.452 c 0,8.103 5.428,13.191 13.403,13.191 7.977,0 13.338,-5.088 13.338,-13.191 V 48.54 h -8.042 v 1.054 c 0,3.349 -1.944,5.76 -5.296,5.76 -3.351,0 -5.294,-2.41 -5.294,-5.76 V 48.54 Z M 55.312,61.515 h 8.042 V 48.54 h -8.042 z m -18.63,0 H 44.79 V 48.54 h -8.108 z m 26.672,-19.8 v -1.427 c 0,-7.164 -3.484,-12.252 -10.856,-12.252 -3.352,0 -5.965,1.339 -7.708,3.281 V 16.184 h -8.108 v 25.531 h 8.108 v -0.823 c 0,-3.348 2.078,-5.826 5.428,-5.826 3.352,0 5.094,2.411 5.094,5.691 v 0.958 z m 31.513,0 v -0.488 c 0,-8.035 -5.361,-13.191 -13.338,-13.191 -7.975,0 -13.403,5.156 -13.403,13.191 v 0.488 h 8.108 V 40.69 c 0,-3.347 1.943,-5.826 5.294,-5.826 3.352,0 5.295,2.478 5.295,5.826 v 1.024 h 8.044 z m 13.121,-25.531 h -8.042 v 25.531 h 8.042 z m 31.842,25.531 v -13.01 h -6.904 l -0.604,3.079 c -1.675,-2.21 -4.422,-3.749 -7.975,-3.749 -7.372,0 -11.192,5.289 -11.192,12.722 v 0.958 h 8.109 v -0.958 c 0,-3.281 1.743,-5.691 5.092,-5.691 3.352,0 5.429,2.478 5.429,5.826 v 0.823 z m 14.032,-25.531 h -8.043 v 25.531 h 8.043 z m 13.839,12.521 h -8.109 v 13.009 h 8.109 z m 18.23,0 h -8.043 v 13.009 h 8.043 z m 22.982,13.01 5.432,-8.323 v -4.687 h -23.59 v 6.628 h 13.604 l -4.198,6.381 h 8.752 z m 5.769,19.8 v -6.562 h -14.41 l 4.185,-6.411 h -8.786 l -5.452,8.285 v 4.688 z"
   inkscape:connector-curvature="0" />
		</defs>
		<clipPath
   id="SVGID_2_">
			<use
   xlink:href="#SVGID_1_"
   overflow="visible"
   id="use5"
   style="overflow:visible"
   x="0"
   y="0"
   width="100%"
   height="100%" />
		</clipPath>

			<linearGradient
   id="SVGID_3_"
   gradientUnits="userSpaceOnUse"
   x1="-192.6377"
   y1="801.28912"
   x2="-14.3428"
   y2="801.28912"
   gradientTransform="matrix(-1,0,0,1,22.1143,-761.7861)">
			<stop
   offset="0"
   style="stop-color:#E6007D"
   id="stop8" />
			<stop
   offset="1"
   style="stop-color:#FFDC00"
   id="stop10" />
		</linearGradient>
		<rect
   x="0"
   y="0"
   clip-path="url(#SVGID_2_)"
   width="215"
   height="63"
   id="rect13"
   style="fill:url(#SVGID_3_)" />
	</g>
</g>
</svg>