<?xml version="1.0" encoding="UTF-8" standalone="no"?>
<!-- Created with Inkscape (http://www.inkscape.org/) -->

<svg
   xmlns:dc="http://purl.org/dc/elements/1.1/"
   xmlns:cc="http://creativecommons.org/ns#"
   xmlns:rdf="http://www.w3.org/1999/02/22-rdf-syntax-ns#"
   xmlns:svg="http://www.w3.org/2000/svg"
   xmlns="http://www.w3.org/2000/svg"
   xmlns:sodipodi="http://sodipodi.sourceforge.net/DTD/sodipodi-0.dtd"
   xmlns:inkscape="http://www.inkscape.org/namespaces/inkscape"
   id="svg7286"
   version="1.1"
   inkscape:version="0.91 r13725"
   xml:space="preserve"
   width="103.04855"
   height="69.250679"
   viewBox="0 0 103.04855 69.250678"
   sodipodi:docname="logo-final-little_blue.svg"><metadata
     id="metadata7292"><rdf:RDF><cc:Work
         rdf:about=""><dc:format>image/svg+xml</dc:format><dc:type
           rdf:resource="http://purl.org/dc/dcmitype/StillImage" /><dc:title></dc:title></cc:Work></rdf:RDF></metadata><defs
     id="defs7290"><clipPath
       clipPathUnits="userSpaceOnUse"
       id="clipPath7300"><path
         d="m 0,352.095 595.28,0 L 595.28,0 0,0 0,352.095 Z"
         id="path7302"
         inkscape:connector-curvature="0" /></clipPath></defs><sodipodi:namedview
     pagecolor="#89ac7e"
     bordercolor="#666666"
     borderopacity="1"
     objecttolerance="10"
     gridtolerance="10"
     guidetolerance="10"
     inkscape:pageopacity="1"
     inkscape:pageshadow="2"
     inkscape:window-width="1920"
     inkscape:window-height="1013"
     id="namedview7288"
     showgrid="false"
     inkscape:zoom="2"
     inkscape:cx="281.43966"
     inkscape:cy="30.052643"
     inkscape:window-x="1366"
     inkscape:window-y="24"
     inkscape:window-maximized="1"
     inkscape:current-layer="g7294"
     showguides="false"
     fit-margin-top="0"
     fit-margin-left="0"
     fit-margin-right="0"
     fit-margin-bottom="0" /><g
     id="g7294"
     inkscape:groupmode="layer"
     inkscape:label="multihelpers_LOGO2 (copia)"
     transform="matrix(1.25,0,0,-1.25,-156.23492,189.61272)"><g
       id="g7296"><g
         id="g7298"
         clip-path="url(#clipPath7300)"><g
           id="g7304"
           transform="translate(155.166,252.9668)" /><g
           id="g7308"
           transform="translate(144.0762,232.5591)" /><g
           id="g7312"
           transform="translate(158.0449,247.7124)" /><g
           id="g7316"
           transform="translate(142.0547,229.0444)" /><g
           id="g7320"
           transform="translate(225.5469,243.1304)" /><g
           id="g7324"
           transform="translate(263.5098,232.0122)" /><g
           id="g7328"
           transform="translate(283.3105,252.0884)" /><g
           id="g7332"
           transform="translate(294.0488,247.729)" /><g
           id="g7336"
           transform="translate(307.209,243.5698)" /><g
           id="g7340"
           transform="translate(316.9414,251.4888)" /><g
           id="g7344"
           transform="translate(352.8711,236.731)" /><g
           id="g7348"
           transform="translate(362.918,251.5688)" /><g
           id="g7352"
           transform="translate(387.7305,233.8911)" /><g
           id="g7356"
           transform="translate(411.1504,236.731)" /><g
           id="g7360"
           transform="translate(421.6367,242.3306)" /><g
           id="g7364"
           transform="translate(450.9941,228.7329)" /><g
           id="g7368"
           transform="translate(155.166,137.729)"><path
             d="M 0,0 C 1.389,7.148 6.361,10.606 13.49,10.43 21.277,10.236 25.932,3.414 23.693,-3.965 23.031,-6.151 26.439,-7.077 27.1,-4.904 29.691,3.641 24.752,12.527 15.701,13.756 6.391,15.019 -1.564,10.415 -3.402,0.938 -3.836,-1.286 -0.432,-2.234 0,0"
             style="fill:#00cded;fill-opacity:1;fill-rule:nonzero;stroke:none"
             id="path7370"
             inkscape:connector-curvature="0" /></g><g
           id="g7372"
           transform="translate(144.0762,117.3213)"><path
             d="M 0.69918172,-4.4974699 C 4.5218177,-15.394976 13.56909,-19.433034 25.211,-20.772 c 11.559,-1.329 26.047,2.427 33.76,11.645 6.39,7.636 5.713,20.484 -1.543,27.266 -5.793,5.418 -18.617,5.961 -22.744,-1.956 -1.049,-2.018 1.998,-3.803 3.05,-1.784 1.668,3.198 5.942,4.101 9.246,4.265 3.981,0.198 7.75,-2.217 10.045,-5.328 5.686,-7.71 2.354,-18.726 -4.822,-24.006 -7.57,-5.571 -18.58,-7.811 -27.742,-6.453 -9.87041,1.464177 -17.2513459,4.610394 -20.4595121,13.8766689"
             style="fill:#00cded;fill-opacity:1;fill-rule:nonzero;stroke:none"
             id="path7374"
             inkscape:connector-curvature="0"
             sodipodi:nodetypes="ccccccccccc" /></g><g
           id="g7376"
           transform="translate(158.0449,132.4746)"><path
             d="M 0,0 C -2.678,6.444 -8.785,8.993 -15.484,8.788 -22.35,8.578 -28,5.13 -30.984,-1.098 c -3.036,-6.334 -2.625,-14.072 0.5,-20.266 2.653805,-5.255186 9.588279,-9.673589 15.78287,-9.138482 l 0,0 0,0 0,0 0,0 c 1.867923,0.214818 2.241066,3.495635 -0.255093,3.546568 l 0,0 0,0 0,0 0,0 c -4.969178,-0.474093 -10.174816,3.294973 -12.479777,7.373914 -2.791,4.947 -2.689,11.571 -0.5,16.701 2.012,4.716 6.002,7.35 10.967,8.016 5.262,0.704 11.35,-0.747 13.561,-6.076 C -2.549,-3.012 0.871,-2.104 0,0"
             style="fill:#00cded;fill-opacity:1;fill-rule:nonzero;stroke:none"
             id="path7378"
             inkscape:connector-curvature="0"
             sodipodi:nodetypes="ccccccccccccccccccc" /></g><g
           id="g7380"
           transform="translate(142.0547,113.8066)" /><g
           id="g7384"
           transform="translate(225.5469,127.8926)" /><g
           id="g7388"
           transform="translate(263.5098,116.7744)" /><g
           id="g7392"
           transform="translate(283.3105,136.8506)" /><g
           id="g7396"
           transform="translate(294.0488,132.4912)" /><g
           id="g7400"
           transform="translate(307.209,128.332)" /><g
           id="g7404"
           transform="translate(316.9414,136.251)" /><g
           id="g7408"
           transform="translate(352.8711,121.4932)" /><g
           id="g7412"
           transform="translate(362.918,136.3311)" /><g
           id="g7416"
           transform="translate(387.7305,118.6533)" /><g
           id="g7420"
           transform="translate(411.1504,121.4932)" /><g
           id="g7424"
           transform="translate(421.6367,127.0928)" /><g
           id="g7428"
           transform="translate(450.9941,113.4951)" /></g></g><g
       id="g4443"
       transform="matrix(0.85079044,0.52550512,-0.52550512,0.85079044,155.12312,9.2909521)" /><g
       id="g4470"
       transform="translate(-51.311259,-3.4389087)"><path
         d="m 191.81126,117.6323 c -2.20381,0.57126 -2.91937,-2.88683 -0.71832,-3.45964 4.93527,-0.70535 10.71882,2.02104 11.87069,6.87501 0.49096,2.22074 -2.89391,3.24529 -3.4078,0.93381 -0.97674,-3.53525 -4.82573,-5.0464 -7.74457,-4.34918 z"
         style="fill:#00cded;fill-opacity:1;fill-rule:nonzero;stroke:none"
         id="path4468"
         inkscape:connector-curvature="0"
         sodipodi:nodetypes="ccccc" /></g></g></svg>