<?xml version="1.0" encoding="UTF-8" standalone="no"?>
<!-- Generator: Adobe Illustrator 21.0.2, SVG Export Plug-In . SVG Version: 6.00 Build 0)  -->

<svg
   xmlns:dc="http://purl.org/dc/elements/1.1/"
   xmlns:cc="http://creativecommons.org/ns#"
   xmlns:rdf="http://www.w3.org/1999/02/22-rdf-syntax-ns#"
   xmlns:svg="http://www.w3.org/2000/svg"
   xmlns="http://www.w3.org/2000/svg"
   xmlns:sodipodi="http://sodipodi.sourceforge.net/DTD/sodipodi-0.dtd"
   xmlns:inkscape="http://www.inkscape.org/namespaces/inkscape"
   version="1.1"
   id="Capa_1"
   x="0px"
   y="0px"
   viewBox="0 0 385.58886 61.493215"
   xml:space="preserve"
   sodipodi:docname="logo-multihelpers2.svg"
   width="385.58887"
   height="61.493214"
   inkscape:version="0.92.4 (8da6682, 2020-02-28)"><metadata
   id="metadata77"><rdf:RDF><cc:Work
       rdf:about=""><dc:format>image/svg+xml</dc:format><dc:type
         rdf:resource="http://purl.org/dc/dcmitype/StillImage" /><dc:title></dc:title></cc:Work></rdf:RDF></metadata><defs
   id="defs75" /><sodipodi:namedview
   pagecolor="#ffffff"
   bordercolor="#666666"
   borderopacity="1"
   objecttolerance="10"
   gridtolerance="10"
   guidetolerance="10"
   inkscape:pageopacity="0"
   inkscape:pageshadow="2"
   inkscape:window-width="1920"
   inkscape:window-height="1025"
   id="namedview73"
   showgrid="false"
   fit-margin-top="0"
   fit-margin-left="0"
   fit-margin-right="0"
   fit-margin-bottom="0"
   inkscape:zoom="2.2425964"
   inkscape:cx="219.32683"
   inkscape:cy="-95.289243"
   inkscape:window-x="0"
   inkscape:window-y="27"
   inkscape:window-maximized="1"
   inkscape:current-layer="Capa_1" />
<style
   type="text/css"
   id="style2">
	.st0{fill:#3EBEDF;}
</style>
<g
   id="g70"
   transform="translate(-370.01112,-194.84253)">
	<g
   id="g42">
		<g
   id="g32">
			<g
   id="g10">
				<g
   id="g8">
					<g
   id="g6">
						<path
   class="st0"
   d="m 403.6,210.3 c 1.6,-7.9 7.1,-11.7 15,-11.5 8.6,0.3 13.7,7.9 11.2,16 -0.8,2.4 3,3.5 3.8,1.1 2.9,-9.5 -2.5,-19.3 -12.5,-20.8 -10.3,-1.5 -19.2,3.6 -21.3,14.1 -0.5,2.5 3.3,3.6 3.8,1.1 z"
   id="path4"
   inkscape:connector-curvature="0"
   style="fill:#3ebedf" />
					</g>
				</g>
			</g>
			<g
   id="g22">
				<g
   id="g20">
					<g
   id="g14">
						<path
   class="st0"
   d="m 391.1,232.8 c 0.3,1 0.6,1.9 0.9,2.9 1.4,-0.3 2.4,-1.3 3.3,-2.3 -0.2,-0.5 -0.3,-1 -0.5,-1.6"
   id="path12"
   inkscape:connector-curvature="0"
   style="fill:#3ebedf" />
					</g>
					<g
   id="g18">
						<path
   class="st0"
   d="m 454.9,213.1 c -6.4,-6 -20.6,-6.7 -25.2,2 -1.2,2.2 2.2,4.2 3.4,2 1.9,-3.5 6.6,-4.5 10.3,-4.7 4.4,-0.2 8.6,2.5 11.1,6 6.2,8.6 2.5,20.8 -5.5,26.6 -8.4,6.1 -20.6,8.5 -30.8,7 -11,-1.7 -19.3,-8.2 -22.7,-18.6 -0.9,1 -1.9,2 -3.3,2.3 4.3,11.6 14.2,18.8 26.9,20.3 12.8,1.6 28.9,-2.5 37.5,-12.7 7,-8.4 6.3,-22.6 -1.7,-30.2 z"
   id="path16"
   inkscape:connector-curvature="0"
   style="fill:#3ebedf" />
					</g>
				</g>
			</g>
			<g
   id="g30">
				<g
   id="g28">
					<g
   id="g26">
						<path
   class="st0"
   d="m 406.7,216.1 c -2.9,-7.2 -9.7,-10 -17.1,-9.8 -7.6,0.2 -13.9,4 -17.2,10.8 -3.4,7 -2.9,15.4 -0.2,20.8 2.2,4.3 9,10.5 16.6,9.9 2.5,-0.2 2.4,-3.7 -0.1,-3.8 -6.5,-0.2 -11,-4.9 -12.8,-7.9 -2.3,-3.9 -2.6,-11.4 -0.2,-17 2.3,-5.2 6.7,-8.1 12.2,-8.8 5.8,-0.7 12.6,0.9 15,6.8 1,2.4 4.8,1.4 3.8,-1 z"
   id="path24"
   inkscape:connector-curvature="0"
   style="fill:#3ebedf" />
					</g>
				</g>
			</g>
		</g>
		<g
   id="g40">
			<g
   id="g38">
				<path
   class="st0"
   d="m 390.2,236.7 c -1.1,0 -2.2,-0.2 -3.2,-0.6 -0.8,-0.3 -1.5,-0.6 -2.2,-1.1 -0.8,-0.5 -1.1,-1.6 -0.5,-2.5 0.5,-0.8 1.6,-1.1 2.5,-0.5 0.5,0.3 0.9,0.5 1.4,0.7 1.6,0.6 3.4,0.5 5,-0.3 1.6,-0.8 2.7,-2.1 3.3,-3.7 l 0.1,-0.3 c 0.3,-0.9 1.3,-1.5 2.2,-1.2 0.9,0.3 1.5,1.3 1.2,2.2 -0.1,0.2 -0.1,0.3 -0.1,0.5 -0.9,2.6 -2.7,4.6 -5.1,5.8 -1.5,0.7 -3,1 -4.6,1 z"
   id="path34"
   inkscape:connector-curvature="0"
   style="fill:#3ebedf" />
				<path
   class="st0"
   d="m 390.3,237.2 v 0 c -1.2,0 -2.4,-0.2 -3.5,-0.6 -0.8,-0.3 -1.6,-0.7 -2.3,-1.1 -1.1,-0.7 -1.4,-2.1 -0.7,-3.2 0.7,-1 2.2,-1.4 3.2,-0.7 0.4,0.3 0.9,0.5 1.3,0.6 1.5,0.5 3.1,0.4 4.6,-0.3 1.4,-0.7 2.5,-1.9 3,-3.4 l 0.1,-0.3 c 0.4,-1.2 1.7,-1.9 2.9,-1.6 1.2,0.4 2,1.7 1.6,2.9 -0.1,0.2 -0.1,0.4 -0.1,0.5 -0.9,2.7 -2.8,4.9 -5.4,6.1 -1.5,0.8 -3.1,1.1 -4.7,1.1 z m -4.5,-4.9 c -0.4,0 -0.8,0.2 -1,0.6 -0.4,0.6 -0.2,1.3 0.4,1.7 0.7,0.4 1.4,0.8 2.1,1 1,0.3 2,0.5 3.1,0.5 l 0.1,0.6 v -0.6 c 1.4,0 2.9,-0.3 4.2,-1 2.3,-1.1 4,-3.1 4.8,-5.5 0,-0.1 0.1,-0.2 0.1,-0.4 0.2,-0.7 -0.2,-1.3 -0.8,-1.5 -0.6,-0.2 -1.3,0.2 -1.5,0.8 l -0.1,0.3 c -0.6,1.8 -1.9,3.3 -3.6,4.1 -1.7,0.8 -3.6,0.9 -5.4,0.3 -0.5,-0.2 -1,-0.4 -1.5,-0.8 -0.5,0 -0.7,-0.1 -0.9,-0.1 z"
   id="path36"
   inkscape:connector-curvature="0"
   style="fill:#3ebedf" />
			</g>
		</g>
	</g>
	<g
   id="g68">
		<path
   d="m 480.9,221 c 0,-1.4 0.6,-2.1 1.7,-2.1 1.1,0 1.8,0.7 1.8,1.9 v 1.8 c 1.3,-2.5 4.1,-4.2 6.9,-4.2 3.1,0 6,2 7.2,5 1.5,-3 4.8,-5 8.3,-5 4.8,0 8.9,3.4 8.9,8.4 v 17 c 0,1.1 -0.6,1.7 -1.8,1.7 -1.2,0 -1.8,-0.6 -1.8,-1.7 v -15.4 c 0,-3.4 -2,-6.3 -5.5,-6.3 -4,0 -6.6,3.5 -6.6,7.4 v 14.3 c 0,1.2 -0.6,1.8 -1.7,1.8 -1.2,0 -1.7,-0.6 -1.7,-1.8 v -15.4 c 0,-3.5 -2.1,-6.2 -5.5,-6.2 -4,0 -6.6,3.4 -6.6,7.3 v 14.3 c 0,1.2 -0.6,1.8 -1.7,1.8 -1.2,0 -1.7,-0.6 -1.7,-1.8 V 221 Z"
   id="path44"
   inkscape:connector-curvature="0" />
		<path
   d="m 525.8,234.2 c 0,7.3 2.9,8.6 6,8.6 3.6,0 7.4,-3.7 7.4,-10.3 v -11.8 c 0,-1.1 0.4,-1.8 1.6,-1.8 1.1,0 1.7,0.6 1.7,1.8 v 24.1 c 0,1 -0.6,1.6 -1.7,1.6 -1.2,0 -1.8,-0.5 -1.8,-1.6 v -3.2 c -2,3.4 -4.9,4.9 -7.7,4.9 -4.6,0 -9.1,-2.9 -9.1,-10.8 v -14.8 c 0,-1.2 0.6,-1.8 1.7,-1.8 1.2,0 1.7,0.6 1.7,1.8 z"
   id="path46"
   inkscape:connector-curvature="0" />
		<path
   d="m 549.3,210.4 c 0,-1.2 0.6,-1.8 1.7,-1.8 1.2,0 1.8,0.6 1.8,1.8 v 33.5 c 0,1.2 -0.6,1.8 -1.8,1.8 -1.2,0 -1.8,-0.6 -1.8,-1.8 v -33.5 z"
   id="path48"
   inkscape:connector-curvature="0" />
		<path
   d="m 562,215.5 c 0,-1.1 0.6,-1.7 1.7,-1.7 1.2,0 1.7,0.6 1.7,1.7 v 3.9 h 4.2 c 1.2,0 1.8,0.5 1.8,1.6 0,1.1 -0.6,1.6 -1.7,1.6 h -4.3 v 14.5 c 0,3.8 0.3,5.7 3.5,5.7 1.4,0 2.1,0.5 2.1,1.6 0,1.1 -0.7,1.7 -2.1,1.7 -5.6,0 -6.9,-3.4 -6.9,-8.9 v -14.5 h -1.5 c -1.1,0 -1.7,-0.5 -1.7,-1.6 0,-1 0.5,-1.6 1.5,-1.6 h 1.8 v -4 z"
   id="path50"
   inkscape:connector-curvature="0" />
		<path
   d="m 579.3,208.4 c 1.3,0 2.4,1 2.4,2.4 0,1.3 -1,2.4 -2.4,2.4 -1.3,0 -2.4,-1 -2.4,-2.4 0,-1.3 1,-2.4 2.4,-2.4 z m -1.7,12.1 c 0,-1.2 0.6,-1.8 1.8,-1.8 1.2,0 1.8,0.6 1.8,1.8 v 23.4 c 0,1.2 -0.6,1.8 -1.8,1.8 -1.2,0 -1.8,-0.6 -1.8,-1.8 z"
   id="path52"
   inkscape:connector-curvature="0" />
		<path
   class="st0"
   d="m 589.1,211.1 c 0,-2.5 1.2,-3.8 3.6,-3.8 2.5,0 3.7,1.3 3.7,3.8 v 10.4 c 1.7,-1.9 3.7,-3.4 6.6,-3.4 3.6,0 8,2.4 8,9.4 V 242 c 0,2.4 -1.2,3.6 -3.7,3.6 -2.4,0 -3.6,-1.2 -3.6,-3.6 v -13.2 c 0,-2.8 -1.8,-4.2 -3.5,-4.2 -1.9,0 -3.7,1.4 -3.7,4.2 V 242 c 0,2.4 -1.2,3.6 -3.7,3.6 -2.4,0 -3.6,-1.2 -3.6,-3.6 v -30.9 z"
   id="path54"
   inkscape:connector-curvature="0"
   style="fill:#3ebedf" />
		<path
   class="st0"
   d="m 639.3,229.8 c 0,3.6 -2.2,3.6 -5.9,3.6 h -10.9 c 0,4.3 4.2,5.7 6.3,5.7 3.6,0 5.2,-2.9 7.7,-2.9 1.5,0 2.7,0.9 2.7,3.1 0,0.9 -0.2,1.5 -0.8,2.2 -2.4,2.9 -5.9,4.5 -10.2,4.5 -8.3,0 -13,-6.6 -13,-14.4 0,-7.2 4.4,-14.1 12.3,-14.1 7.6,0.1 11.8,5 11.8,12.3 z m -7.6,-1.2 c 0,-3 -2.1,-4.5 -4.2,-4.5 -2.2,0 -4.6,1.6 -4.6,4.5 z"
   id="path56"
   inkscape:connector-curvature="0"
   style="fill:#3ebedf" />
		<path
   class="st0"
   d="m 643.6,211 c 0,-2.4 1.2,-3.7 3.6,-3.7 2.4,0 3.7,1.3 3.7,3.7 v 30.9 c 0,2.5 -1.2,3.7 -3.6,3.7 -2.5,0 -3.7,-1.2 -3.7,-3.7 z"
   id="path58"
   inkscape:connector-curvature="0"
   style="fill:#3ebedf" />
		<path
   class="st0"
   d="m 656.4,221.5 c 0,-2.5 1.1,-3.7 3.6,-3.7 2.5,0 3.7,1.3 3.7,3.7 2,-2.8 4.4,-3.8 7.1,-3.8 4.7,0 9.7,4.8 9.7,14.1 0,7.8 -5.6,14.3 -10.8,14.3 -2.5,0 -5.4,-1.4 -6.6,-3.9 v 10.2 c 0,2.1 -2.1,2.9 -3.1,2.9 -2.4,0 -3.6,-1.3 -3.6,-3.8 z m 16.6,10.4 c 0,-3.3 -1.1,-7.4 -4.2,-7.4 -3.4,0 -4.9,3.9 -4.9,7.3 0,3.6 1.5,7.2 4.9,7.2 3.1,-0.1 4.2,-3.8 4.2,-7.1 z"
   id="path60"
   inkscape:connector-curvature="0"
   style="fill:#3ebedf" />
		<path
   class="st0"
   d="m 708.3,229.8 c 0,3.6 -2.2,3.6 -5.9,3.6 h -10.8 c 0,4.3 4.2,5.7 6.3,5.7 3.7,0 5.2,-2.9 7.7,-2.9 1.5,0 2.7,0.9 2.7,3.1 0,0.9 -0.2,1.5 -0.8,2.2 -2.4,2.9 -5.9,4.5 -10.2,4.5 -8.3,0 -13,-6.6 -13,-14.4 0,-7.2 4.4,-14.1 12.3,-14.1 7.5,0.1 11.7,5 11.7,12.3 z m -7.6,-1.2 c 0,-3 -2.1,-4.5 -4.2,-4.5 -2.2,0 -4.6,1.6 -4.6,4.5 z"
   id="path62"
   inkscape:connector-curvature="0"
   style="fill:#3ebedf" />
		<path
   class="st0"
   d="m 713.2,221.9 c 0,-2.6 1.2,-3.8 3.6,-3.8 1.5,0 2.9,0.9 3,3.1 0.8,-1.6 3.9,-3.5 5.9,-3.5 3.8,0 5.2,2.1 5.2,4 0,1.9 -1.6,3.7 -3.7,3.7 -0.7,0 -1.3,0 -1.8,-0.1 -0.3,0 -0.6,-0.1 -1.1,-0.1 -1.8,0 -3.9,1.5 -3.9,3.6 V 242 c 0,2.4 -1.1,3.6 -3.7,3.6 -2.4,0 -3.6,-1.2 -3.6,-3.6 v -20.1 z"
   id="path64"
   inkscape:connector-curvature="0"
   style="fill:#3ebedf" />
		<path
   class="st0"
   d="m 748,238 c 0,-3.8 -13.2,-4 -13.2,-12.2 0,-5.8 4.9,-8.4 10.5,-8.4 2.5,0 5.1,0.4 7.6,1.7 1.3,0.7 1.9,1.9 1.9,3 0,1.6 -1.1,3.2 -3.3,3.2 -2.5,0 -4.4,-1.6 -7.2,-1.6 -1.2,0 -2.2,0.4 -2.2,1.7 0,3.3 13.5,4.1 13.5,11.9 0,6.3 -5.6,8.7 -10.8,8.7 -3.6,0 -6.4,-1.1 -9.1,-2.7 -1,-0.7 -1.5,-1.9 -1.5,-3 0,-2.1 1.7,-3.1 3.4,-3.1 2.8,0 4.2,2.6 7.9,2.6 1.5,0 2.5,-0.5 2.5,-1.8 z"
   id="path66"
   inkscape:connector-curvature="0"
   style="fill:#3ebedf" />
	</g>
</g>
</svg>